HIERARCHY
ROOT hip
{
  OFFSET 0 0 0
  CHANNELS 6 Xposition Yposition Zposition Zrotation Yrotation Xrotation
  JOINT abdomen
  {
    OFFSET 0 20.6881 -0.73152
    CHANNELS 3 Zrotation Xrotation Yrotation
    JOINT chest
    {
      OFFSET 0 11.7043 -0.48768
      CHANNELS 3 Zrotation Xrotation Yrotation
      JOINT neck
      {
        OFFSET 0 22.1894 -2.19456
        CHANNELS 3 Zrotation Xrotation Yrotation
        JOINT head
        {
          OFFSET -0.24384 7.07133 1.2192
          CHANNELS 3 Zrotation Xrotation Yrotation
          JOINT leftEye
          {
            OFFSET 4.14528 8.04674 8.04672
            CHANNELS 3 Zrotation Xrotation Yrotation
            End Site
            {
              OFFSET 1 0 0
            }
          }
          JOINT rightEye
          {
            OFFSET -3.6576 8.04674 8.04672
            CHANNELS 3 Zrotation Xrotation Yrotation
            End Site
            {
              OFFSET 1 0 0
            }
          }
        }
      }
      JOINT rCollar
      {
        OFFSET -2.68224 19.2634 -4.8768
        CHANNELS 3 Zrotation Xrotation Yrotation
        JOINT rShldr
        {
          OFFSET -8.77824 -1.95073 1.46304
          CHANNELS 3 Zrotation Xrotation Yrotation
          JOINT rForeArm
          {
            OFFSET -28.1742 -1.7115 0.48768
            CHANNELS 3 Zrotation Xrotation Yrotation
            JOINT rHand
            {
              OFFSET -22.5879 0.773209 7.07136
              CHANNELS 3 Zrotation Xrotation Yrotation
              JOINT rThumb1
              {
                OFFSET -1.2192 -0.487915 3.41376
                CHANNELS 3 Zrotation Xrotation Yrotation
                JOINT rThumb2
                {
                  OFFSET -3.37035 -0.52449 3.41376
                  CHANNELS 3 Zrotation Xrotation Yrotation
                  End Site
                  {
                    OFFSET -1.78271 -1.18214 1.43049
                  }
                }
              }
              JOINT rIndex1
              {
                OFFSET -7.75947 0.938293 5.60832
                CHANNELS 3 Zrotation Xrotation Yrotation
                JOINT rIndex2
                {
                  OFFSET -2.54057 -0.884171 1.56538
                  CHANNELS 3 Zrotation Xrotation Yrotation
                  End Site
                  {
                    OFFSET -1.62519 -0.234802 1.16502
                  }
                }
              }
              JOINT rMid1
              {
                OFFSET -8.24714 1.18213 3.41376
                CHANNELS 3 Zrotation Xrotation Yrotation
                JOINT rMid2
                {
                  OFFSET -3.10165 -0.590103 1.0647
                  CHANNELS 3 Zrotation Xrotation Yrotation
                  End Site
                  {
                    OFFSET -2.48547 -0.328903 0.83742
                  }
                }
              }
              JOINT rRing1
              {
                OFFSET -8.82822 0.546677 1.51678
                CHANNELS 3 Zrotation Xrotation Yrotation
                JOINT rRing2
                {
                  OFFSET -2.60934 -0.819778 -0.0198488
                  CHANNELS 3 Zrotation Xrotation Yrotation
                  End Site
                  {
                    OFFSET -2.33842 -0.294052 0.168128
                  }
                }
              }
              JOINT rPinky1
              {
                OFFSET -8.27202 -0.0477905 -0.4584
                CHANNELS 3 Zrotation Xrotation Yrotation
                JOINT rPinky2
                {
                  OFFSET -1.82734 -0.647385 -0.700984
                  CHANNELS 3 Zrotation Xrotation Yrotation
                  End Site
                  {
                    OFFSET -1.69225 -0.51767 -0.607171
                  }
                }
              }
            }
          }
        }
      }
      JOINT lCollar
      {
        OFFSET 2.68224 19.2634 -4.8768
        CHANNELS 3 Zrotation Xrotation Yrotation
        JOINT lShldr
        {
          OFFSET 8.77824 -1.95073 1.46304
          CHANNELS 3 Zrotation Xrotation Yrotation
          JOINT lForeArm
          {
            OFFSET 28.1742 -1.7115 0.48768
            CHANNELS 3 Zrotation Xrotation Yrotation
            JOINT lHand
            {
              OFFSET 22.5879 0.773209 7.07136
              CHANNELS 3 Zrotation Xrotation Yrotation
              JOINT lThumb1
              {
                OFFSET 1.2192 -0.487915 3.41376
                CHANNELS 3 Zrotation Xrotation Yrotation
                JOINT lThumb2
                {
                  OFFSET 3.37035 -0.52449 3.41376
                  CHANNELS 3 Zrotation Xrotation Yrotation
                  End Site
                  {
                    OFFSET 1.78271 -1.18214 1.43049
                  }
                }
              }
              JOINT lIndex1
              {
                OFFSET 7.75947 0.938293 5.60832
                CHANNELS 3 Zrotation Xrotation Yrotation
                JOINT lIndex2
                {
                  OFFSET 2.54057 -0.884171 1.56538
                  CHANNELS 3 Zrotation Xrotation Yrotation
                  End Site
                  {
                    OFFSET 1.62519 -0.234802 1.16502
                  }
                }
              }
              JOINT lMid1
              {
                OFFSET 8.24714 1.18213 3.41376
                CHANNELS 3 Zrotation Xrotation Yrotation
                JOINT lMid2
                {
                  OFFSET 3.10165 -0.590103 1.0647
                  CHANNELS 3 Zrotation Xrotation Yrotation
                  End Site
                  {
                    OFFSET 2.48547 -0.328903 0.83742
                  }
                }
              }
              JOINT lRing1
              {
                OFFSET 8.82822 0.546677 1.51678
                CHANNELS 3 Zrotation Xrotation Yrotation
                JOINT lRing2
                {
                  OFFSET 2.60934 -0.819778 -0.0198488
                  CHANNELS 3 Zrotation Xrotation Yrotation
                  End Site
                  {
                    OFFSET 2.33842 -0.294052 0.168128
                  }
                }
              }
              JOINT lPinky1
              {
                OFFSET 8.27202 -0.0477905 -0.4584
                CHANNELS 3 Zrotation Xrotation Yrotation
                JOINT lPinky2
                {
                  OFFSET 1.82734 -0.647385 -0.700984
                  CHANNELS 3 Zrotation Xrotation Yrotation
                  End Site
                  {
                    OFFSET 1.69225 -0.51767 -0.607171
                  }
                }
              }
            }
          }
        }
      }
    }
  }
  JOINT rButtock
  {
    OFFSET -8.77824 4.35084 1.2192
    CHANNELS 3 Zrotation Xrotation Yrotation
    JOINT rThigh
    {
      OFFSET 0 -1.70687 -2.19456
      CHANNELS 3 Zrotation Xrotation Yrotation
      JOINT rShin
      {
        OFFSET 0 -36.8199 0.73152
        CHANNELS 3 Zrotation Xrotation Yrotation
        JOINT rFoot
        {
          OFFSET 0.73152 -45.1104 -5.12064
          CHANNELS 3 Zrotation Xrotation Yrotation
          End Site
          {
            OFFSET -1.1221 -3.69964 12.103
          }
        }
      }
    }
  }
  JOINT lButtock
  {
    OFFSET 8.77824 4.35084 1.2192
    CHANNELS 3 Zrotation Xrotation Yrotation
    JOINT lThigh
    {
      OFFSET 0 -1.70687 -2.19456
      CHANNELS 3 Zrotation Xrotation Yrotation
      JOINT lShin
      {
        OFFSET 0 -36.8199 0.73152
        CHANNELS 3 Zrotation Xrotation Yrotation
        JOINT lFoot
        {
          OFFSET -0.73152 -45.1104 -5.12064
          CHANNELS 3 Zrotation Xrotation Yrotation
          End Site
          {
            OFFSET 1.1221 -3.69964 12.103
          }
        }
      }
    }
  }
}
MOTION
Frames:	4
Frame Time:	0.03333
0.0 0.0 0.0 0.0 0.0 0.0 0.0 0.0 0.0 0.0 0.0 0.0 0.0 0.0 0.0 0.0 0.0 0.0 0.0 0.0 0.0 0.0 0.0 0.0 0.0 0.0 0.0 0.0 0.0 0.0 0.0 0.0 0.0 0.0 0.0 0.0 0.0 0.0 0.0 0.0 0.0 0.0 0.0 0.0 0.0 0.0 0.0 0.0 0.0 0.0 0.0 0.0 0.0 0.0 0.0 0.0 0.0 0.0 0.0 0.0 0.0 0.0 0.0 0.0 0.0 0.0 0.0 0.0 0.0 0.0 0.0 0.0 0.0 0.0 0.0 0.0 0.0 0.0 0.0 0.0 0.0 0.0 0.0 0.0 0.0 0.0 0.0 0.0 0.0 0.0 0.0 0.0 0.0 0.0 0.0 0.0 0.0 0.0 0.0 0.0 0.0 0.0 0.0 0.0 0.0 0.0 0.0 0.0 0.0 0.0 0.0 0.0 0.0 0.0 0.0 0.0 0.0 0.0 0.0 0.0 0.0 0.0 0.0 0.0 0.0 0.0 0.0 0.0 0.0 0.0 0.0 0.0
-0.037599999999999995 56.5153 -0.015 16.201169 -54.633741 -9.470105 -16.911864 6.454315 -104.216685 3.864106 5.110699 99.824826 -14.820635 26.125618 -68.091257 37.205091 -0.928282 34.963753 0.001924 -0.0 -7.2e-05 0.001924 -0.0 -7.2e-05 -147.708797 28.982284 152.516411 37.201752 -54.696956 72.280639 90.033353 -80.605907 129.323674 -12.224357 43.007967 4.051189 -2.755015 2.697344 0.486361 7.219217 -8.715332 -3.782456 -130.173273 16.063865 109.221991 -163.433594 -12.617204 118.161247 -143.016313 32.983704 130.79867 -171.077331 -28.464811 143.864802 -0.002359 -0.372956 -0.117775 3.454085 44.366218 8.676121 -49.934808 -49.451016 -48.658884 15.410342 39.546335 7.424829 145.227052 34.97468 -149.808125 -115.564786 -20.715771 -141.518872 4.770332 -3.316692 -32.404952 4.50475 29.696663 -2.522143 -3.776933 -3.757703 0.458188 -24.474637 -45.740683 19.492734 13.116501 17.980784 -8.72689 28.690391 38.147095 -19.413929 156.420488 5.729854 -140.91193 170.697982 -27.059158 -143.859436 12.518529 -52.290145 24.322045 -11.447813 31.927749 -2.765989 14.664963 -27.233768 13.97896 154.813046 40.547509 148.676781 179.984703 75.750387 0.013281 152.796302 0.34508 -89.777486 -73.716117 -4.627094 116.037385 76.629002 -33.520008 -12.957636 -179.968505 75.747823 -0.02482 -112.080788 83.196982 119.281067 -0.195015 -44.510006 -2.548116 -87.124117 -16.615734 -162.932809
-0.0763 56.4916 -0.023 16.329925 -54.610744 -9.593843 -16.89101 7.060014 -88.023103 5.832057 3.75479 83.598315 7.478904 27.511931 98.306241 -35.313064 14.735888 -130.683149 -0.002487 0.0 -0.001974 0.003552 0.0 0.002569 0.075037 -0.452249 -0.099927 56.754666 26.070371 0.800792 -5.004564 -14.862685 40.729193 -4.917979 24.619841 1.500281 -139.623793 19.761225 81.937267 -144.82209 -8.654966 71.070846 -146.972059 -9.149731 119.440116 -177.290577 -42.130505 115.491123 -145.084025 29.852506 132.524965 -169.725366 -24.573747 143.957089 0.004896 1.41728 0.445229 -80.324284 78.734085 93.638318 -136.228687 -11.058034 -133.571778 179.81753 77.630874 -136.274164 0.694957 3.971395 -0.908134 107.573496 -41.008772 -165.429192 21.198497 -48.119507 82.710033 -135.59932 -56.141543 -121.245856 5.328533 5.165762 -1.052784 -48.844471 -65.649389 11.06771 147.67662 -10.413757 -119.746857 172.526121 -35.326917 -117.513274 96.202295 59.958494 -87.378104 9.102537 29.653589 -7.627284 145.113287 -0.469027 178.982414 146.306387 -47.863359 168.715569 27.694985 -39.674949 26.717549 -19.335775 54.306232 -8.9533 179.994498 75.749484 0.004766 150.505784 0.311209 88.768573 84.303135 2.940602 52.120122 -160.688539 8.885488 138.739739 -0.000386 -0.001527 -0.000362 7.464057 12.886597 -84.748164 -31.438033 3.430889 116.381578 -114.811717 -19.002963 -14.618619
-0.10089999999999999 56.4677 -0.018000000000000002 16.309414 -54.656617 -9.563699 -17.028364 6.515822 -97.175946 4.851236 4.627592 92.606039 6.847287 24.725427 80.637807 -34.679304 3.903848 -116.231006 -0.001772 -0.0 0.001142 -0.001772 -0.0 0.001142 -1.861802 9.879722 2.369384 57.590349 7.36158 7.353144 -11.570547 0.435285 41.832844 -2.516778 17.353062 1.275756 -30.568202 24.935479 11.311903 25.000305 -23.381339 3.677167 -119.562458 26.620439 101.030465 10.414008 -6.50292 -8.175004 4.275296 -13.148145 -2.004847 -151.216777 26.17286 136.73486 -145.116791 -0.212003 -179.062654 -147.127415 -45.818498 -169.563311 -84.061832 -50.813992 -82.453078 24.116237 63.057841 7.319147 29.085827 57.735941 -31.472873 -62.106396 -4.120731 -63.557572 1.816748 -22.115018 -31.194949 5.806607 33.32445 -2.744534 -14.686039 -14.597612 0.384431 -0.215809 -7.982616 10.838669 163.167506 -38.334317 -122.608887 36.354024 52.419205 -24.963438 159.139678 -2.012842 -142.478021 -7.225603 -11.951024 0.808108 142.448177 -28.151957 169.384234 -13.623331 22.165688 5.840369 -7.570734 23.515784 -6.708794 142.91646 -2.74974 139.562491 -0.00512 -0.000363 -0.003601 -63.708906 -59.283719 -139.821116 -74.501847 7.207921 131.894487 122.852127 -56.385 14.112352 179.99658 75.749208 0.003729 -104.648811 84.880743 10.702287 29.875577 3.847468 -87.978393 -127.600283 -48.329934 -36.898541
